<svg viewBox="1 1 511 511.996" xmlns="http://www.w3.org/2000/svg"><path d="m510.300781 55.960938-53.761719-53.765626c-1.410156-1.40625-3.316406-2.195312-5.304687-2.195312h-443.234375c-4.144531 0-7.503906 3.359375-7.503906 7.5v497c0 4.140625 3.359375 7.5 7.503906 7.5h403.625.007812.003907 93.359375c4.144531 0 7.5-3.359375 7.5-7.5v-443.234375c0-1.988281-.789063-3.898437-2.195313-5.304687zm-401.433593 110.664062v-151.625h51.074218v151.625zm388.628906 330.375h-78.363282v-241c0-4.140625-3.359374-7.5-7.5-7.5h-310.265624c-4.144532 0-7.5 3.359375-7.5 7.5v218.441406c0 4.140625 3.355468 7.5 7.5 7.5 4.140624 0 7.5-3.359375 7.5-7.5v-210.941406h295.265624v233.5h-388.632812v-482h78.363281v159.125c0 4.140625 3.359375 7.5 7.5 7.5h310.265625c4.144532 0 7.5-3.359375 7.5-7.5v-136.285156c0-4.144532-3.355468-7.5-7.5-7.5-4.140625 0-7.5 3.355468-7.5 7.5v128.785156h-229.1875v-151.625h273.183594l49.371094 49.371094zm0 0"/><path d="m348.429688 47.402344c-4.144532 0-7.5 3.355468-7.5 7.5v71.820312c0 4.140625 3.355468 7.5 7.5 7.5 4.140624 0 7.5-3.359375 7.5-7.5v-71.820312c0-4.144532-3.359376-7.5-7.5-7.5zm0 0"/><path d="m164.566406 333.882812h183.863282c4.140624 0 7.5-3.355468 7.5-7.5 0-4.140624-3.359376-7.5-7.5-7.5h-183.863282c-4.140625 0-7.5 3.359376-7.5 7.5 0 4.144532 3.359375 7.5 7.5 7.5zm0 0"/><path d="m164.566406 391.339844h183.863282c4.140624 0 7.5-3.355469 7.5-7.5 0-4.140625-3.359376-7.5-7.5-7.5h-183.863282c-4.140625 0-7.5 3.359375-7.5 7.5 0 4.144531 3.359375 7.5 7.5 7.5zm0 0"/><path d="m164.566406 448.796875h183.863282c4.140624 0 7.5-3.355469 7.5-7.5 0-4.140625-3.359376-7.5-7.5-7.5h-183.863282c-4.140625 0-7.5 3.359375-7.5 7.5 0 4.144531 3.359375 7.5 7.5 7.5zm0 0"/></svg>